<?xml version="1.0" encoding="UTF-8"?>
<!DOCTYPE svg PUBLIC "-//W3C//DTD SVG 1.1//EN" "http://www.w3.org/Graphics/SVG/1.1/DTD/svg11.dtd">
<!-- Creator: CorelDRAW -->
<svg xmlns="http://www.w3.org/2000/svg" xml:space="preserve" width="2048px" height="2048px" style="shape-rendering:geometricPrecision; text-rendering:geometricPrecision; image-rendering:optimizeQuality; fill-rule:evenodd; clip-rule:evenodd"
viewBox="0 0 2048 2048"
 xmlns:xlink="http://www.w3.org/1999/xlink">
 <defs>
  <style type="text/css">
   <![CDATA[
    .fil0 {fill:#7E57C2}
    .fil2 {fill:#FFFFFE}
    .fil1 {fill:#FFFFFE;fill-rule:nonzero}
   ]]>
  </style>
 </defs>
 <g id="Layer_x0020_1">
  <metadata id="CorelCorpID_0Corel-Layer"/>
  <circle class="fil0" cx="1024" cy="1024" r="1024"/>
  <g id="_521338840">
   <path id="_521338984" class="fil1" d="M796.618 697.056c-11.9268,4.83071 -17.6799,18.4181 -12.8492,30.3449 4.83189,11.928 18.4193,17.6811 30.3461,12.8492 33.913,-13.7551 66.4229,-22.076 99.4997,-25.0524 33.2114,-2.98819 67.6501,-0.667323 105.307,6.86812 12.6307,2.51693 24.913,-5.68465 27.4288,-18.3154 2.51575,-12.6319 -5.68465,-24.913 -18.3165,-27.4288 -41.6386,-8.33268 -80.3587,-10.8425 -118.428,-7.41615 -38.2028,3.43819 -75.104,12.7843 -112.988,28.1504z"/>
   <path id="_521338960" class="fil2" d="M1187.73 839.055c-84.2623,-32.6918 -161.34,-62.5997 -199.271,-98.4863 -24.0921,-3.29173 -48.3615,-4.33111 -72.7501,-2.13543 -32.2028,2.89843 -62.9209,11.315 -92.8264,23.4378 -1.9063,0.773623 -3.8374,1.40906 -5.77914,1.91339 -28.3134,43.2768 -74.7449,74.0339 -123.164,106.099 -101.571,67.2662 -210.956,139.707 -210.956,334.034l0.164173 6.77481c2.41772,102.521 59.367,196.647 153.806,264.8 92.3339,66.6331 220.803,108.509 368.693,108.509 3.7878,0 10.0146,-0.102756 18.6768,-0.305906 17.9232,-0.421654 35.4957,-1.4752 52.6937,-3.11929 144.214,-13.7894 266.51,-69.1501 352.334,-143.679 87.678,-76.1398 137.818,-172.696 135.604,-266.622 -0.141732,-6.04016 -0.493701,-12.013 -1.05709,-17.9055 -16.6193,-173.814 -209.186,-248.528 -376.167,-313.314zm-163.683 76.4445c75.176,0 143.321,29.0268 192.719,75.9556 49.6217,47.1402 80.3138,112.298 80.3138,184.301 0,72.0012 -30.6933,137.16 -80.3138,184.301 -49.3985,46.9276 -117.543,75.9544 -192.719,75.9544 -75.176,0 -143.322,-29.0268 -192.721,-75.9544 -49.6205,-47.1402 -80.3127,-112.299 -80.3127,-184.301 0,-72.0024 30.691,-137.16 80.3127,-184.301 49.3985,-46.9288 117.545,-75.9556 192.721,-75.9556z"/>
   <path id="_521339608" class="fil2" d="M1014.37 650.135l124.772 -132.43 0.0413386 0.0389764c8.83347,-9.37678 8.3941,-24.1429 -0.982678,-32.9764 -2.91733,-2.74725 -6.35552,-4.59804 -9.97324,-5.56182 -91.6489,-33.4855 -146.315,-4.85197 -194.877,20.6008 -32.1591,16.8543 -60.9095,31.9205 -96.3591,16.2461l0.011811 -0.0271654c-1.74803,-0.773623 -3.54095,-1.31457 -5.34213,-1.63701l-124.277 -34.2366 0.0248032 -0.0921261c-12.4205,-3.42166 -25.265,3.87402 -28.6866,16.2957 -2.25118,8.16969 0.135827,16.5213 5.56536,22.2555l124.837 148.784c31.8508,-11.1697 64.5083,-18.6744 98.393,-21.7229 35.9315,-3.23268 71.4792,-1.30512 106.853,4.46339z"/>
   <path id="_521339344" class="fil2" d="M1192.71 1016.74c-43.0866,-40.9311 -102.713,-66.2493 -168.663,-66.2493 -65.9504,0 -125.577,25.3181 -168.663,66.2493 -42.8658,40.7209 -69.378,96.945 -69.378,159.014 0,62.0693 26.5122,118.292 69.378,159.013 43.0855,40.9323 102.712,66.2493 168.663,66.2493 65.9493,0 125.576,-25.3169 168.663,-66.2493 42.8646,-40.7209 69.378,-96.9438 69.378,-159.013 0,-62.0693 -26.5134,-118.293 -69.378,-159.014zm-155.964 24.1571c17.9929,2.19803 32.2831,8.27245 42.9272,18.3969 10.5874,10.1244 17.3575,23.6622 20.3067,40.6134l-42.8693 5.61142c-2.60315,-13.3642 -9.37205,-22.389 -20.3646,-27.1335l0 66.2434c27.1335,7.34764 45.6473,16.8933 55.4245,28.5803 9.83505,11.687 14.752,26.6705 14.752,45.0107 0,20.4213 -6.19016,37.663 -18.5126,51.6638 -12.3815,14.0575 -29.6209,22.6205 -51.6638,25.8024l0 31.7044 -24.5303 0 0 -30.8941c-19.5543,-2.37166 -35.4638,-9.66142 -47.6705,-21.8693 -12.2079,-12.1488 -19.9606,-29.3894 -23.374,-51.6626l44.2583 -4.74449c1.7941,9.02481 5.20748,16.8354 10.1823,23.3729 4.91811,6.53741 10.4717,11.2819 16.6039,14.2311l0 -70.9855c-22.1575,-6.36378 -38.4154,-15.9106 -48.7701,-28.7551 -10.298,-12.8421 -15.5055,-28.4055 -15.5055,-46.6878 0,-18.5126 5.84292,-34.076 17.5299,-46.6878 11.7437,-12.6118 27.3071,-19.8437 46.7457,-21.8103l0 -16.7788 24.5303 0 0 16.7788z"/>
   <path id="_521339296" class="fil2" d="M1012.21 1136.53l0 -58.6642c-6.71103,2.25591 -11.9752,6.13229 -15.9673,11.5122 -3.93425,5.43898 -5.90079,11.4555 -5.90079,17.9929 0,5.95867 1.79291,11.5713 5.37993,16.6618 3.64488,5.14843 9.14174,9.31418 16.4882,12.4973z"/>
   <path id="_521338528" class="fil2" d="M1065.44 1224.3c0,-7.57914 -2.25591,-14.0587 -6.71103,-19.5555 -4.45512,-5.49567 -11.8028,-9.7193 -21.9851,-12.6106l0 66.0686c8.50394,-1.5626 15.3886,-5.49567 20.7118,-11.7449 5.32205,-6.30591 7.98426,-13.6536 7.98426,-22.1575z"/>
  </g>
 </g>
</svg>
