<?xml version="1.0" encoding="UTF-8"?>
<!DOCTYPE svg PUBLIC "-//W3C//DTD SVG 1.1//EN" "http://www.w3.org/Graphics/SVG/1.1/DTD/svg11.dtd">
<!-- Creator: CorelDRAW -->
<svg xmlns="http://www.w3.org/2000/svg" xml:space="preserve" width="2048px" height="2048px" style="shape-rendering:geometricPrecision; text-rendering:geometricPrecision; image-rendering:optimizeQuality; fill-rule:evenodd; clip-rule:evenodd"
viewBox="0 0 2048 2048"
 xmlns:xlink="http://www.w3.org/1999/xlink">
 <defs>
  <style type="text/css">
   <![CDATA[
    .fil0 {fill:#8BC34A}
    .fil2 {fill:#FFFFFE}
    .fil1 {fill:#FFFFFE;fill-rule:nonzero}
   ]]>
  </style>
 </defs>
 <g id="Layer_x0020_1">
  <metadata id="CorelCorpID_0Corel-Layer"/>
  <circle class="fil0" cx="1024" cy="1024" r="1024"/>
  <g id="_374904888">
   <g>
    <path id="_374906616" class="fil1" d="M1323.04 809.923c11.0728,-21.8185 24.991,-45.5859 40.8496,-68.419 21.6933,-31.2307 46.7044,-60.241 72.4016,-79.1044l-13.7339 -18.7382 13.7788 18.7713c10.3665,-7.60867 12.6012,-22.1835 4.99252,-32.55 -3.2563,-4.43504 -7.78583,-7.38071 -12.7169,-8.70473 -71.1792,-25.865 -113.479,-3.70748 -151.064,15.9921 -22.9536,12.0295 -43.4776,22.7835 -67.7197,12.0744l0.011811 -0.0271654c-1.74449,-0.772442 -3.53386,-1.31221 -5.3315,-1.63465l-93.1914 -25.6725 0.0248032 -0.090945c-12.398,-3.41575 -25.2189,3.86575 -28.6335,16.2638 -2.78268,10.0973 1.53425,20.4744 9.92835,25.8236 25.8638,19.3701 51.3237,50.0162 72.1394,82.9949 13.585,21.5256 25.05,43.7776 33.2469,64.3229 2.09528,-0.162992 4.18937,-0.318898 6.28465,-0.466536 14.0173,-0.989765 28.063,-1.64528 42.1146,-1.9878l0 -0.372048 23.2855 0c14.5299,0 29.0622,0.335433 43.5768,1.01575 3.2504,0.152362 6.50197,0.32126 9.75591,0.509056z"/>
    <path id="_374906496" class="fil2" d="M978.722 942.016l-23.2855 528.286c-1.83307,41.6233 61.7233,67.4599 150.539,79.3571 49.2874,6.60119 106.717,9.90355 163.723,9.90355 57.0071,0 114.436,-3.30236 163.723,-9.90355 88.8166,-11.8973 152.373,-37.7339 150.539,-79.3571l-23.2855 -528.286c-2.25827,-51.2741 -66.73,-83.8796 -152.965,-99.1194 -29.7248,-5.25473 -62.2335,-8.66221 -95.5194,-10.2236 -14.0728,-0.660237 -28.2851,-0.989765 -42.4855,-0.989765l0 0.090945c-21.4583,0 -42.8835,0.735827 -63.7583,2.21103 -25.9299,1.83307 -51.0095,4.80237 -74.2489,8.90788 -86.2394,15.2398 -150.716,47.8465 -152.976,99.1229zm215.012 187.37c0,-18.4784 5.83111,-34.0122 17.4969,-46.6016 11.7224,-12.5882 27.2563,-19.8071 46.6583,-21.7701l0 -16.7469 24.4855 0 0 16.7469c17.9599,2.19449 32.2229,8.25827 42.8481,18.3638 10.5673,10.1043 17.3244,23.6173 20.2701,40.5378l-42.7902 5.60197c-2.59961,-13.3394 -9.3567,-22.3488 -20.328,-27.0827l0 66.1182c27.0839,7.33465 45.5622,16.8638 55.3217,28.5272 9.81733,11.6658 14.726,26.6221 14.726,44.928 0,20.3847 -6.17953,37.5933 -18.4795,51.5681 -12.3579,14.0315 -29.5666,22.5792 -51.5681,25.7551l0 31.6453 -24.4855 0 0 -30.8374c-19.5177,-2.36693 -35.3988,-9.64253 -47.5831,-21.828 -12.1843,-12.1264 -19.9217,-29.3351 -23.3292,-51.5681l44.1756 -4.73504c1.79055,9.00827 5.19804,16.8047 10.1646,23.3292 4.90748,6.5256 10.4528,11.2606 16.5721,14.2063l0 -70.8556c-22.1162,-6.35197 -38.3433,-15.8811 -48.6792,-28.7008 -10.2791,-12.8197 -15.476,-28.3536 -15.476,-46.6016z"/>
    <path id="_374906712" class="fil2" d="M1241.95 1109.41c-3.92717,5.42717 -5.89016,11.4331 -5.89016,17.9587 0,5.94804 1.79055,11.55 5.37048,16.6311 3.63898,5.14016 9.1252,9.29764 16.4575,12.4736l0 -58.5556c-6.69686,2.25236 -11.9528,6.12166 -15.9378,11.4921z"/>
    <path id="_374905968" class="fil2" d="M1282.37 1211.96l0 65.9481c8.48977,-1.55906 15.3602,-5.48622 20.674,-11.7224 5.3126,-6.2941 7.9689,-13.6288 7.9689,-22.1173 0,-7.56497 -2.25236,-14.0327 -6.69922,-19.5201 -4.44685,-5.48504 -11.7803,-9.7004 -21.9437,-12.5882z"/>
   </g>
   <g>
    <path id="_374905920" class="fil1" d="M831.64 688.917c11.0728,-21.8185 24.991,-45.5859 40.8496,-68.419 21.6933,-31.2307 46.7055,-60.241 72.4028,-79.1044l-13.735 -18.7382 13.7788 18.7713c10.3665,-7.60867 12.6024,-22.1823 4.99252,-32.55 -3.25512,-4.43504 -7.78583,-7.38071 -12.7158,-8.70473 -71.1804,-25.865 -113.479,-3.7063 -151.065,15.9921 -22.9524,12.0295 -43.4776,22.7835 -67.7186,12.0744l0.011811 -0.0271654c-1.74449,-0.772442 -3.53386,-1.31221 -5.33268,-1.63465l-93.1914 -25.6725 0.0248032 -0.090945c-12.3969,-3.41575 -25.2177,3.86693 -28.6335,16.2638 -2.7815,10.0973 1.53425,20.4744 9.92954,25.8236 25.8638,19.3701 51.3237,50.0162 72.1382,82.9949 13.5862,21.5256 25.0512,43.7776 33.2469,64.3229 2.09528,-0.162992 4.19055,-0.318898 6.28583,-0.466536 14.0162,-0.989765 28.063,-1.64528 42.1146,-1.9878l0 -0.372048 23.2855 0c14.5299,0 29.0622,0.335433 43.5756,1.01575 3.2504,0.152362 6.50315,0.32126 9.75591,0.509056z"/>
    <path id="_374905632" class="fil2" d="M487.324 821.011l-23.2855 528.286c-1.83425,41.6233 61.7221,67.4599 150.539,79.3571 49.2874,6.60119 106.716,9.90355 163.723,9.90355 53.9091,0 108.196,-2.95394 155.619,-8.85827l21.5398 -488.71c2.55945,-58.0548 59.2725,-89.8465 114.384,-107.151l-0.565748 -12.828c-2.25827,-51.2729 -66.73,-83.8796 -152.965,-99.1194 -29.7248,-5.25473 -62.2335,-8.66221 -95.5205,-10.2236 -14.0717,-0.660237 -28.2851,-0.989765 -42.4843,-0.989765l0 0.090945c-21.4595,0 -42.8847,0.737008 -63.7583,2.21103 -25.9299,1.83307 -51.0095,4.80237 -74.2501,8.90788 -86.2383,15.2398 -150.716,47.8465 -152.975,99.1229zm215.01 187.37c0,-18.4784 5.83229,-34.0122 17.498,-46.6016 11.7213,-12.5882 27.2551,-19.8071 46.6583,-21.7701l0 -16.7469 24.4843 0 0 16.7469c17.9599,2.19449 32.224,8.25827 42.8492,18.3638 10.5673,10.1043 17.3232,23.6173 20.2689,40.5378l-42.7902 5.60197c-2.59843,-13.3394 -9.35552,-22.3488 -20.328,-27.0827l0 66.1182c27.0839,7.33465 45.5634,16.8638 55.3229,28.5272 9.81733,11.6658 14.7248,26.6221 14.7248,44.928 0,20.3847 -6.17953,37.5933 -18.4784,51.5681 -12.3579,14.0315 -29.5666,22.5792 -51.5693,25.7551l0 31.6453 -24.4843 0 0 -30.8374c-19.5177,-2.36693 -35.3988,-9.64253 -47.5831,-21.828 -12.1843,-12.1264 -19.9228,-29.3351 -23.3303,-51.5681l44.1768 -4.73504c1.79055,9.00827 5.19685,16.8047 10.1634,23.3292 4.90867,6.52678 10.4528,11.2606 16.5732,14.2063l0 -70.8556c-22.1162,-6.35197 -38.3445,-15.8811 -48.6804,-28.7008 -10.2791,-12.8197 -15.476,-28.3536 -15.476,-46.6016z"/>
    <path id="_374906040" class="fil2" d="M750.552 988.402c-3.92599,5.42717 -5.88898,11.4331 -5.88898,17.9587 0,5.94804 1.78937,11.55 5.37048,16.6311 3.63898,5.14016 9.12402,9.29764 16.4575,12.4736l0 -58.5556c-6.69804,2.25236 -11.9528,6.12166 -15.939,11.4921z"/>
    <path id="_374905584" class="fil2" d="M790.975 1090.96l0 65.9481c8.48977,-1.55906 15.3614,-5.48622 20.674,-11.7224 5.3126,-6.2941 7.9689,-13.6288 7.9689,-22.1173 0,-7.56497 -2.25118,-14.0327 -6.69922,-19.5189 -4.44567,-5.48622 -11.7791,-9.70158 -21.9437,-12.5894z"/>
   </g>
  </g>
 </g>
</svg>
