<?xml version="1.0" encoding="UTF-8"?>
<!DOCTYPE svg PUBLIC "-//W3C//DTD SVG 1.1//EN" "http://www.w3.org/Graphics/SVG/1.1/DTD/svg11.dtd">
<!-- Creator: CorelDRAW -->
<svg xmlns="http://www.w3.org/2000/svg" xml:space="preserve" width="2048px" height="2048px" style="shape-rendering:geometricPrecision; text-rendering:geometricPrecision; image-rendering:optimizeQuality; fill-rule:evenodd; clip-rule:evenodd"
viewBox="0 0 2048 2048"
 xmlns:xlink="http://www.w3.org/1999/xlink">
 <defs>
  <style type="text/css">
   <![CDATA[
    .fil0 {fill:#7E57C2}
    .fil2 {fill:#FFFFFE}
    .fil1 {fill:#FFFFFE;fill-rule:nonzero}
   ]]>
  </style>
 </defs>
 <g id="Layer_x0020_1">
  <metadata id="CorelCorpID_0Corel-Layer"/>
  <circle class="fil0" cx="1024" cy="1024" r="1024"/>
  <g id="_374902488">
   <g>
    <path id="_374903736" class="fil1" d="M1019.17 1202.92c22.9382,-17.2181 43.2237,-32.4449 66.4831,-33.8811 4.91103,-0.303544 10.1941,0.011811 15.4252,0.968505 8.63505,1.58032 17.1851,4.97244 23.8748,10.298 7.73859,6.16182 13.0394,14.6575 13.7197,25.6748 0.18189,2.94685 -0.00590552,6.08268 -0.614174,9.40867 -1.45039,7.94056 -39.7855,44.7083 -90.2363,77.1615 -30.6827,19.7362 -66.3532,39.039 -101.348,51.013 -0.338977,0.145276 -0.68504,0.279921 -1.03937,0.399213l-0.00826772 -0.0236221c-41.8595,14.1732 -129.952,13.865 -183.476,13.6772 -2.22284,-0.00708662 4.76575,0.0153543 -15.6354,0.0153543 -17.0291,0 -48.6402,25.1492 -69.0284,43.0949l-0.0366142 -0.0366142 -0.0283465 0.0271654 -128.667 -128.525c24.0721,-34.6595 67.9371,-92.5076 100.349,-104.89 20.2028,-7.71497 51.6142,-9.55631 85.6867,-11.5536 21.1488,-1.23898 43.3737,-2.54292 63.7713,-5.31615 30.3484,-4.13622 51.4867,-8.13308 68.5241,-11.3539 22.5449,-4.26142 38.1437,-7.21064 59.1969,-7.56142 7.96182,-0.131102 14.8937,2.45906 20.4295,7.063 4.07953,3.39095 7.25434,7.77048 9.3815,12.8457 1.92047,4.58268 2.99173,9.83741 3.08504,15.4984 0.199606,12.2221 -4.38307,26.5016 -15.2551,39.5752 -21.3295,25.6512 -59.0315,28.9973 -88.5721,31.6181 -9.84804,0.874016 -18.5788,1.65 -23.9091,2.94331 0.0401575,0.109843 0.0791339,0.222047 0.115748,0.334252 1.3252,1.30748 10.8295,4.07953 26.2736,7.01339 19.5154,3.7063 45.8481,4.77992 74.8264,-1.32992 10.5248,-2.21929 21.3945,-5.39292 32.4047,-9.7382 0.137008,-0.0661418 0.274016,-0.129921 0.413386,-0.19252l0.0106299 0.0248032 0.0141732 -0.00590552 -0.00354331 -0.00826772c20.0599,-8.85709 37.7091,-22.1043 53.8725,-34.2378z"/>
    <path id="_374903256" class="fil1" d="M468.74 1324.35l46.7162 -46.767 9.62009 9.56694 -9.62717 -9.61536c5.31024,-5.31615 13.9264,-5.32205 19.2425,-0.011811 0.246851,0.246851 0.483071,0.500788 0.7063,0.760631l141.813 141.656 -9.56694 9.62009 9.61536 -9.62599c5.31615,5.31024 5.32087,13.9252 0.011811,19.2414 -0.246851,0.248032 -0.500788,0.483071 -0.761812,0.7063l-46.715 46.7681 -9.62009 -9.56694 9.62599 9.61536c-5.30906,5.31615 -13.9252,5.32087 -19.2414,0.0106299 -0.246851,-0.245669 -0.483071,-0.499607 -0.7063,-0.760631l-141.813 -141.656 9.56694 -9.62009 -9.61536 9.62717c-5.31615,-5.31024 -5.32205,-13.9264 -0.011811,-19.2425 0.246851,-0.246851 0.500788,-0.48189 0.760631,-0.7063z"/>
   </g>
   <g>
    <g>
     <path id="_374903496" class="fil2" d="M1068.29 707.852l-442.211 118.489c-5.74489,1.54016 -9.15591,7.44804 -7.61575,13.1941l60.4902 225.755c1.54016,5.74607 7.44686,9.15591 13.1941,7.61693l442.211 -118.489c5.74607,-1.54016 9.15591,-7.44804 7.61575,-13.1941l-0.912993 -3.40866c-6.1193,0.581103 -12.3354,0.959056 -18.7547,1.06417 -16.1728,0.26811 -31.3394,-5.23347 -41.9563,-17.7685 -2.97992,-3.51851 -5.40473,-7.34292 -7.32638,-11.3835 -0.23504,0.34252 -0.457087,0.694489 -0.664961,1.05473 -2.02441,3.5067 -2.72008,7.77875 -1.59803,11.9646 0.829134,3.09803 -1.00866,6.28347 -4.1067,7.1126l-328.153 87.9284c-3.09803,0.830316 -6.28229,-1.00866 -7.1126,-4.1067 -1.12205,-4.18701 -3.85985,-7.5378 -7.36772,-9.56221 -3.5067,-2.02441 -7.77757,-2.72126 -11.9646,-1.59921 -3.09685,0.830316 -6.28229,-1.00866 -7.11142,-4.1067l-30.5351 -113.955c-0.830316,-3.09803 1.00866,-6.28229 4.10551,-7.1126 4.18819,-1.12205 7.5378,-3.85985 9.56339,-7.36772 2.02441,-3.5067 2.72008,-7.77757 1.59803,-11.9646 -0.829134,-3.09685 1.00866,-6.28229 4.1067,-7.11142l328.153 -87.9296c3.09803,-0.829134 6.28229,1.00866 7.1126,4.1067 1.12205,4.18701 3.85985,7.5378 7.36772,9.56221 3.5067,2.02441 7.77757,2.72126 11.9646,1.59921 3.09685,-0.829134 6.28229,1.00866 7.11142,4.1067l18.1441 67.7103c3.39213,-8.47323 7.98426,-16.3158 13.4374,-22.8732 5.88071,-7.07363 12.502,-12.8008 19.6618,-17.4732l-25.252 -94.2414c-1.54016,-5.74725 -7.44686,-9.15709 -13.1941,-7.61693z"/>
     <path id="_374903880" class="fil2" d="M1019.93 775.531l-318.137 85.2449c0.253937,5.33622 -1.07953,10.5343 -3.6626,15.0083 -2.58189,4.47284 -6.41693,8.22638 -11.165,10.6748l27.8504 103.941c5.33622,-0.253937 10.5343,1.07953 15.0071,3.6626 4.47284,2.58189 8.22757,6.41575 10.676,11.165l318.137 -85.2449c-0.253937,-5.33622 1.07953,-10.5331 3.6626,-15.0071 1.67126,-2.89488 3.86575,-5.48859 6.49371,-7.62166 -1.74685,-7.85079 -2.00551,-16.1339 -1.03819,-24.365l-22.141 -82.63c-5.33622,0.253937 -10.5343,-1.07953 -15.0071,-3.66142 -4.47284,-2.58307 -8.22757,-6.41693 -10.676,-11.1662zm-197.203 81.6591c8.49449,-14.713 22.6016,-26.1862 40.3063,-30.9296 17.7047,-4.74449 35.6587,-1.86142 50.3705,6.63189 14.713,8.49449 26.1851,22.6016 30.9284,40.3063 4.74449,17.7059 1.8626,35.6575 -6.63071,50.3693 -8.49568,14.7118 -22.6016,26.1851 -40.3063,30.9296 -17.7047,4.74331 -35.6587,1.86142 -50.3705,-6.63189 -14.7118,-8.49449 -26.1851,-22.6004 -30.9284,-40.3063 -4.74449,-17.7047 -1.8626,-35.6575 6.63071,-50.3693zm142.271 26.7851l83.1733 -22.2862 3.00591 11.2181 -83.1733 22.2862 -3.00591 -11.2181zm-11.1626 -41.6611l83.1733 -22.2862 3.00591 11.2193 -83.1733 22.2851 -3.00591 -11.2181zm-249.66 67.1268l83.1721 -22.2862 3.00591 11.2193 -83.1733 22.2851 -3.00473 -11.2181zm11.1626 41.6611l83.1721 -22.2862 3.00591 11.2181 -83.1721 22.2862 -3.00591 -11.2181z"/>
     <path id="_374903808" class="fil2" d="M907.601 842.951c-12.137,-7.00867 -26.9492,-9.38623 -41.5583,-5.47205 -14.6079,3.91418 -26.2477,13.3795 -33.254,25.5177 -7.00867,12.137 -9.38623,26.9492 -5.47087,41.5571 3.91418,14.6091 13.3784,26.2477 25.5166,33.2551 12.137,7.00749 26.9504,9.38505 41.5583,5.47087 14.6079,-3.91418 26.2477,-13.3795 33.254,-25.5166 7.00867,-12.1382 9.38623,-26.9492 5.47087,-41.5583 -3.91418,-14.6079 -13.3784,-26.2477 -25.5166,-33.254zm-57.7701 36.724c-1.52717,-5.7 -0.801969,-10.9854 2.15197,-15.8847 2.95748,-4.88268 8.31615,-8.60198 16.0689,-11.1177l-1.27323 -4.74922 7.00985 -1.87914 1.27323 4.7504c7.29331,-1.47992 13.2201,-1.2437 17.7933,0.692127 4.58622,1.91339 8.13898,5.28071 10.6595,10.0996l-17.0941 7.61812c-1.4941,-2.03977 -2.73425,-3.39331 -3.69213,-4.08426 -0.957875,-0.690945 -2.3752,-1.26024 -4.2874,-1.71378l3.71811 13.8744c10.4232,-0.0188977 17.6421,0.977954 21.691,2.98347 5.34331,2.71181 8.82284,7.04528 10.4209,13.0075 0.929528,3.47244 1.01929,6.88938 0.244488,10.2213 -0.778347,3.31654 -2.10709,6.28937 -3.99213,8.88308 -1.90158,2.59961 -4.09607,4.69607 -6.57875,6.30945 -2.48268,1.61339 -5.66693,3.02835 -9.55749,4.22953l2.43071 9.07324 -7.00985 1.87914 -2.43189 -9.07324c-4.81063,0.849213 -8.82875,1.1185 -12.0425,0.785434 -3.22677,-0.311811 -6.15709,-1.15866 -8.81339,-2.55355 -2.65158,-1.37953 -4.85197,-3.03662 -6.62008,-4.98662 -1.75276,-1.95236 -3.34843,-4.43859 -4.77756,-7.47875l18.7878 -7.45749c1.41969,3.00827 2.80394,5.09528 4.16457,6.23977 1.3441,1.15039 3.3,1.96063 5.81575,2.44488l-4.5378 -16.937c-6.9319,-0.0555119 -11.935,-0.382677 -14.9894,-0.969686 -3.05315,-0.585827 -5.95748,-2.05512 -8.71654,-4.42323 -2.75906,-2.36811 -4.70079,-5.62323 -5.81575,-9.78308z"/>
     <path id="_374902560" class="fil2" d="M874.661 877.341l-3.29292 -12.2847c-1.86614,1.22008 -3.06851,2.43662 -3.59055,3.63071 -0.53504,1.21417 -0.633071,2.48622 -0.272835,3.83032 0.377953,1.40788 1.11614,2.52638 2.21221,3.33898 1.09843,0.829134 2.74016,1.32047 4.9441,1.48465z"/>
     <path id="_374902512" class="fil2" d="M894.118 896.881c-1.40315,-0.975591 -3.79488,-1.5815 -7.20119,-1.8437l4.11733 15.3626c2.55591,-1.33465 4.2874,-2.8689 5.17559,-4.59922 0.88819,-1.73032 1.10551,-3.47362 0.643701,-5.19331 -0.402756,-1.50709 -1.31221,-2.73898 -2.73544,-3.72638z"/>
    </g>
    <path id="_374902608" class="fil1" d="M1102.58 704.064c41.8607,-14.1744 129.952,-13.8662 183.476,-13.6772 2.22402,0.00708662 -4.76457,-0.0165354 15.6366,-0.0165354 17.0291,0 48.639,-25.1492 69.0272,-43.0937l128.733 128.535c-24.0732,34.6595 -67.9382,92.5076 -100.35,104.889 -20.2028,7.71615 -51.613,9.55749 -85.6867,11.5547 -21.1488,1.23898 -43.3725,2.54292 -63.7701,5.31615 -30.3484,4.13622 -51.4878,8.13308 -68.5252,11.3539 -22.5437,4.26142 -38.1425,7.21064 -59.1957,7.56024 -39.574,0.649607 -39.437,-48.7701 -17.641,-74.9812 21.3284,-25.6512 59.0304,-28.9973 88.5721,-31.6181 9.84686,-0.874016 18.5776,-1.65 23.9091,-2.94331 -0.0401575,-0.111024 -0.0791339,-0.222047 -0.115748,-0.334252 -1.3252,-1.30748 -10.8307,-4.07953 -26.2748,-7.01457 -16.8673,-3.20315 -38.83,-4.4374 -63.1914,-0.767717l-24.0626 -89.1544c-0.0437008,-0.162992 -1.7315,-9.2315 -0.540945,-5.60788z"/>
    <path id="_374903184" class="fil1" d="M1579.26 723.654l-46.7162 46.7681 -9.62009 -9.56694 9.62717 9.61536c-5.31024,5.31615 -13.9252,5.32087 -19.2425,0.011811 -0.246851,-0.246851 -0.48189,-0.501969 -0.7063,-0.760631l-141.813 -141.657 9.56694 -9.62009 -9.61536 9.62717c-5.31615,-5.31024 -5.32087,-13.9252 -0.0106299,-19.2425 0.246851,-0.246851 0.499607,-0.48189 0.760631,-0.705119l46.7162 -46.7681 9.61891 9.56694 -9.62599 -9.61536c5.31024,-5.31733 13.9252,-5.32205 19.2425,-0.0106299 0.245669,0.245669 0.48189,0.499607 0.705119,0.759449l141.814 141.657 -9.56694 9.61891 9.61536 -9.62599c5.31615,5.31024 5.32087,13.9252 0.0106299,19.2425 -0.246851,0.245669 -0.499607,0.48189 -0.760631,0.705119z"/>
   </g>
  </g>
 </g>
</svg>
