<?xml version="1.0" standalone="no"?>
<!DOCTYPE svg PUBLIC "-//W3C//DTD SVG 20010904//EN"
 "http://www.w3.org/TR/2001/REC-SVG-20010904/DTD/svg10.dtd">
<svg version="1.0" xmlns="http://www.w3.org/2000/svg"
 width="300.000000pt" height="168.000000pt" viewBox="0 0 300.000000 168.000000"
 preserveAspectRatio="xMidYMid meet">
<metadata>
Created by potrace 1.10, written by Peter Selinger 2001-2011
</metadata>
<g transform="translate(0.000000,168.000000) scale(0.100000,-0.100000)"
fill="#000000" stroke="none">
<path d="M1290 1193 c0 -4 93 -8 208 -8 114 0 219 -3 234 -7 49 -14 87 -56
104 -115 13 -46 16 -92 12 -247 -4 -194 -10 -224 -47 -253 -9 -7 -11 -13 -6
-13 10 0 -24 -22 -63 -40 -34 -15 -439 -15 -477 0 -40 15 -75 48 -91 86 -20
48 -22 448 -2 495 16 37 68 83 103 92 18 4 18 5 1 6 -32 2 -86 -39 -109 -83
-20 -37 -22 -58 -25 -240 -5 -267 11 -326 102 -367 36 -16 68 -19 266 -19 198
0 230 3 266 19 90 41 107 100 102 367 -3 228 -11 256 -81 302 -40 27 -41 27
-269 30 -125 2 -228 -1 -228 -5z"/>
<path d="M1293 1010 c-50 -16 -83 -63 -83 -119 0 -35 5 -53 20 -66 26 -23 25
-34 -2 -45 -18 -7 -13 -9 28 -9 43 -1 53 -4 57 -21 6 -23 39 -27 57 -5 15 18
7 31 -27 40 -87 21 -130 69 -119 130 12 61 88 99 161 81 35 -9 75 -53 75 -82
0 -22 -4 -24 -45 -24 -33 0 -45 4 -45 15 0 17 -45 21 -55 5 -11 -18 13 -37 60
-50 49 -14 95 -58 95 -91 0 -11 -7 -35 -15 -55 -37 -90 -202 -81 -230 14 -12
42 -29 42 -20 0 9 -43 18 -53 69 -77 53 -26 89 -26 145 -1 39 18 45 19 55 5
12 -17 84 -24 105 -11 6 4 11 18 11 31 0 30 21 27 51 -8 42 -48 149 -45 149 4
0 23 -30 79 -42 79 -4 0 -8 7 -8 15 0 8 -4 15 -10 15 -5 0 -10 7 -10 15 0 8
-4 15 -9 15 -13 0 -25 41 -14 49 4 3 25 31 46 61 60 90 42 91 -23 2 -33 -45
-60 -84 -60 -87 0 -2 27 -43 60 -89 33 -47 60 -86 60 -88 0 -2 -25 -1 -56 0
l-55 4 -47 71 c-51 77 -57 74 -50 -24 l3 -49 -37 0 c-21 0 -41 1 -45 3 -5 1
-8 27 -9 57 0 30 -2 105 -3 165 -1 67 -5 105 -10 96 -7 -11 -14 -9 -38 9 -35
25 -94 33 -140 20z"/>
<path d="M1636 980 c-30 -36 -38 -38 -47 -13 -4 12 -9 0 -14 -35 -4 -29 -5
-55 -2 -58 2 -3 24 24 48 60 43 63 45 65 94 69 l50 3 -52 2 c-46 2 -54 -1 -77
-28z"/>
</g>
</svg>
